<?xml version="1.0" standalone="no"?>
<!DOCTYPE svg PUBLIC "-//W3C//DTD SVG 20010904//EN"
 "http://www.w3.org/TR/2001/REC-SVG-20010904/DTD/svg10.dtd">
<svg version="1.0" xmlns="http://www.w3.org/2000/svg"
 width="2048.000000pt" height="2048.000000pt" viewBox="0 0 2048.000000 2048.000000"
 preserveAspectRatio="xMidYMid meet">
<metadata>
Created by potrace 1.14, written by Peter Selinger 2001-2017
</metadata>
<g transform="translate(0.000000,2048.000000) scale(0.100000,-0.100000)"
fill="#000000" stroke="none">
<path d="M9915 19874 c-473 -21 -854 -59 -1255 -125 -2299 -379 -4383 -1585
-5874 -3398 -1112 -1353 -1836 -2993 -2085 -4726 -70 -484 -95 -859 -95 -1390
0 -400 9 -594 40 -920 242 -2549 1493 -4893 3483 -6529 1353 -1112 2993 -1836
4726 -2085 480 -69 858 -95 1385 -95 527 0 905 26 1385 95 2375 342 4535 1562
6069 3428 1137 1383 1867 3064 2100 4836 60 457 80 766 80 1270 0 531 -25 906
-95 1390 -342 2375 -1562 4535 -3428 6069 -597 491 -1292 932 -1977 1255
-1125 531 -2273 827 -3529 911 -157 11 -792 20 -930 14z m1010 -618 c1083 -89
2090 -346 3040 -776 2650 -1201 4574 -3618 5139 -6460 125 -628 171 -1105 171
-1780 0 -456 -8 -623 -50 -1000 -104 -940 -358 -1871 -745 -2725 -1035 -2285
-2993 -4055 -5360 -4845 -751 -251 -1468 -393 -2275 -452 -238 -17 -984 -17
-1215 0 -1112 83 -2145 343 -3115 782 -2285 1035 -4055 2993 -4845 5360 -251
749 -391 1454 -452 2270 -17 232 -17 988 0 1220 61 816 201 1521 452 2270 710
2127 2206 3925 4185 5027 1152 642 2474 1032 3775 1113 96 6 198 12 225 14
127 9 894 -4 1070 -18z"/>
<path d="M9930 18904 c-282 -13 -578 -38 -865 -73 -370 -46 -923 -167 -1350
-296 -2503 -758 -4551 -2635 -5528 -5065 -344 -854 -534 -1694 -609 -2680 -27
-358 -14 -1015 28 -1435 306 -3070 2238 -5756 5059 -7035 948 -429 1906 -668
3015 -752 360 -27 1013 -14 1435 28 3070 306 5756 2238 7035 5059 429 947 669
1909 752 3015 27 362 14 1013 -28 1435 -306 3070 -2238 5756 -5059 7035 -927
420 -1894 665 -2943 745 -187 15 -782 27 -942 19z m965 -618 c1365 -120 2595
-538 3725 -1265 485 -312 896 -646 1331 -1080 624 -625 1087 -1259 1481 -2027
492 -961 764 -1917 865 -3039 13 -146 17 -296 17 -645 0 -475 -8 -626 -55
-1000 -166 -1337 -661 -2605 -1444 -3697 -275 -383 -510 -659 -864 -1014 -643
-642 -1291 -1111 -2091 -1512 -864 -434 -1747 -697 -2708 -807 -603 -69 -1305
-65 -1912 11 -1336 166 -2605 661 -3697 1444 -383 275 -659 510 -1014 864
-624 625 -1087 1259 -1481 2027 -492 961 -764 1917 -865 3039 -13 146 -17 296
-17 645 0 475 8 626 55 1000 166 1337 661 2605 1444 3697 275 383 510 659 864
1014 624 623 1259 1088 2027 1481 1016 520 2067 805 3231 878 210 13 898 4
1108 -14z"/>
<path d="M9845 17541 c-100 -19 -186 -86 -232 -180 -25 -51 -28 -67 -28 -166
0 -100 3 -116 28 -171 56 -120 156 -187 282 -188 83 -1 149 21 190 64 16 17
32 30 36 30 4 0 10 -16 13 -35 7 -33 9 -35 47 -35 l39 0 -5 128 c-3 70 -8 151
-11 180 l-6 53 -136 -7 c-75 -3 -140 -9 -144 -13 -4 -4 -5 -24 -1 -45 l6 -38
90 4 89 4 -6 -44 c-8 -62 -39 -107 -90 -131 -47 -23 -127 -28 -173 -10 -128
48 -181 279 -96 418 81 130 286 117 336 -21 5 -14 15 -16 59 -11 29 3 54 7 56
8 9 8 -44 107 -71 133 -61 59 -177 90 -272 73z"/>
<path d="M10433 17214 c-78 -176 -145 -327 -149 -336 -5 -16 1 -18 54 -18 l61
0 33 81 c18 45 39 84 46 86 7 3 70 2 140 -3 l126 -9 29 -92 28 -93 60 0 c32 0
59 3 59 6 0 12 -213 669 -219 676 -4 5 -34 11 -66 14 l-60 6 -142 -318z m225
109 c12 -43 31 -109 42 -147 l19 -69 -101 7 c-56 3 -103 8 -105 9 -5 6 110
277 117 277 4 0 16 -35 28 -77z"/>
<path d="M11048 17158 c-31 -183 -55 -334 -54 -335 8 -9 102 -20 106 -13 3 5
23 116 44 247 21 131 42 241 45 246 4 4 28 -113 55 -260 26 -147 53 -271 59
-275 7 -4 22 -8 34 -8 12 0 28 -3 36 -6 10 -4 52 61 152 240 76 135 139 246
140 246 1 0 -18 -116 -41 -257 -24 -141 -42 -258 -40 -260 4 -5 101 -22 104
-19 4 4 112 638 112 657 0 13 -18 19 -77 29 -70 11 -78 11 -90 -5 -7 -10 -68
-121 -135 -246 -68 -125 -126 -225 -129 -221 -4 4 -28 128 -53 277 -26 148
-48 270 -49 271 -3 2 -145 24 -155 24 -5 0 -34 -150 -64 -332z"/>
<path d="M8745 17397 c-27 -5 -51 -11 -53 -12 -3 -3 118 -659 124 -664 5 -5
430 70 444 79 16 10 -3 95 -20 93 -8 -1 -84 -14 -168 -29 -84 -14 -155 -24
-159 -21 -3 4 -28 129 -55 279 -27 150 -53 276 -56 279 -4 3 -29 1 -57 -4z"/>
<path d="M12014 17306 c-13 -38 -181 -642 -179 -644 6 -7 460 -132 469 -129
16 5 36 88 23 92 -7 2 -86 25 -177 51 -91 25 -168 48 -171 50 -7 4 39 174 50
186 4 5 78 -13 165 -38 87 -25 161 -42 165 -39 3 4 11 24 17 45 10 34 10 40
-5 44 -9 3 -81 23 -160 45 -79 22 -146 43 -149 45 -9 10 41 177 52 173 25 -10
336 -97 345 -97 5 0 12 16 15 36 4 19 9 41 12 48 3 8 -6 16 -23 19 -15 4 -122
33 -236 66 -139 39 -210 55 -213 47z"/>
<path d="M8245 17273 l-51 -15 -32 -346 c-18 -191 -33 -354 -32 -364 0 -15 5
-15 51 -3 28 8 53 16 56 19 3 2 8 46 11 98 l7 93 60 16 c33 9 93 26 132 37
l73 20 56 -79 c42 -61 60 -78 74 -74 9 3 36 11 59 18 l43 12 -217 293 c-119
160 -222 291 -228 291 -7 -1 -35 -8 -62 -16z m134 -241 c40 -56 74 -108 77
-115 3 -9 -25 -21 -92 -40 -53 -15 -98 -26 -99 -25 -2 2 1 53 5 113 5 61 9
130 9 155 1 55 2 54 100 -88z"/>
<path d="M7616 17064 c-121 -46 -222 -86 -224 -89 -5 -5 225 -616 237 -627 9
-10 461 162 460 176 0 6 -8 28 -17 48 l-17 37 -169 -65 c-93 -35 -174 -63
-179 -61 -5 1 -24 42 -42 91 l-33 87 41 18 c23 10 95 38 160 62 64 24 117 47
117 50 0 17 -31 79 -40 79 -5 0 -73 -25 -152 -55 -78 -30 -148 -55 -154 -55
-6 0 -24 36 -41 81 l-31 81 31 13 c18 7 95 36 172 65 77 29 141 54 143 55 4 3
-32 95 -38 94 -3 0 -104 -38 -224 -85z"/>
<path d="M12970 16969 c-52 -16 -86 -45 -109 -92 -49 -101 -21 -164 124 -279
112 -89 142 -129 126 -171 -17 -45 -50 -67 -100 -67 -116 1 -211 94 -191 186
7 30 5 33 -41 55 -59 27 -69 21 -76 -45 -13 -107 42 -193 162 -252 159 -79
305 -49 351 71 20 53 15 131 -10 170 -9 14 -49 51 -89 83 -122 97 -157 135
-157 171 0 21 9 41 26 58 72 72 251 -35 229 -137 -5 -25 -2 -29 46 -49 29 -11
55 -19 57 -16 3 3 8 32 10 63 3 45 -1 68 -16 99 -56 109 -229 186 -342 152z"/>
<path d="M7013 16821 c-187 -64 -257 -237 -143 -351 51 -51 89 -58 209 -35
177 32 192 34 216 25 28 -10 55 -57 55 -94 0 -55 -111 -136 -188 -136 -41 0
-84 21 -110 55 l-21 26 -51 -26 -51 -26 19 -32 c11 -18 40 -45 63 -62 111 -76
320 -19 413 112 60 86 41 209 -42 266 -56 39 -100 42 -240 13 -67 -14 -135
-23 -152 -20 -40 9 -64 38 -64 81 0 29 7 42 37 68 43 37 114 61 152 51 15 -4
38 -18 51 -31 14 -14 29 -25 35 -25 20 0 89 41 89 53 0 20 -61 74 -102 91 -49
21 -111 20 -175 -3z"/>
<path d="M13480 16729 c-12 -23 -20 -42 -18 -44 2 -1 42 -24 91 -50 48 -26 87
-51 87 -55 0 -5 -52 -103 -114 -219 -63 -115 -124 -228 -136 -250 l-20 -41 51
-25 c28 -15 52 -25 54 -23 1 2 64 116 139 255 l137 251 89 -49 c49 -27 92 -49
97 -49 8 0 57 80 51 84 -18 14 -472 256 -478 256 -5 0 -19 -18 -30 -41z"/>
<path d="M6340 16444 c-19 -14 -41 -29 -48 -33 -11 -6 -11 -37 -2 -174 7 -91
11 -170 9 -176 -2 -6 -74 24 -159 65 -154 75 -155 75 -185 59 -17 -9 -43 -26
-58 -38 l-28 -22 221 -100 220 -100 71 -107 c40 -60 76 -108 81 -108 14 0 88
52 88 62 0 5 -32 55 -70 111 l-71 102 -9 210 c-5 116 -10 225 -10 243 0 38 -4
39 -50 6z"/>
<path d="M13973 16241 c-128 -191 -163 -257 -163 -308 0 -124 121 -252 268
-284 71 -15 145 7 199 59 30 29 238 326 286 409 5 7 -10 24 -37 42 -25 17 -47
31 -50 31 -2 0 -64 -88 -136 -195 -72 -107 -144 -204 -161 -215 -48 -35 -87
-35 -149 -3 -66 35 -100 81 -100 135 0 50 10 69 151 280 66 97 119 179 119
182 0 5 -85 66 -92 66 -2 -1 -63 -90 -135 -199z"/>
<path d="M12349 16057 c-43 -29 -75 -77 -94 -141 -8 -28 -28 -98 -45 -155 -57
-198 -137 -327 -297 -482 -121 -116 -200 -173 -481 -343 -294 -178 -407 -261
-536 -391 -169 -171 -296 -414 -352 -675 -78 -369 -72 -775 22 -1405 8 -55 19
-131 24 -170 5 -38 16 -122 25 -185 61 -456 79 -819 51 -1075 l-12 -121 -54
-79 c-293 -436 -714 -857 -1067 -1066 -264 -155 -431 -213 -748 -259 -96 -14
-150 -22 -365 -55 -783 -121 -1327 -249 -1745 -412 -297 -115 -592 -283 -795
-452 -47 -39 -91 -71 -97 -71 -7 0 -31 37 -54 82 -65 130 -134 225 -238 329
-114 114 -234 195 -456 310 -345 177 -456 263 -554 426 l-40 66 -16 -39 c-67
-156 -115 -395 -115 -574 0 -438 229 -834 649 -1119 67 -45 121 -86 121 -91 0
-6 -18 -10 -40 -10 -70 0 -259 -30 -348 -56 -171 -49 -377 -163 -537 -297 -33
-28 -186 -175 -340 -327 -154 -152 -298 -290 -320 -307 -120 -90 -249 -144
-379 -158 l-70 -8 40 -20 c64 -33 232 -101 344 -140 548 -188 1025 -205 1437
-51 175 65 296 134 452 257 78 62 85 65 110 54 15 -7 99 -49 187 -93 758 -388
1525 -652 2261 -779 222 -38 577 -75 720 -75 61 0 124 -5 138 -10 34 -13 30
-24 -42 -154 -278 -495 -793 -828 -1498 -966 -60 -12 -112 -24 -114 -26 -2 -2
65 -37 150 -78 223 -107 451 -186 659 -229 179 -37 230 -42 440 -42 242 1 352
17 550 82 604 198 1081 739 1336 1513 20 63 42 118 48 122 6 4 47 20 91 34
206 69 559 231 765 352 230 135 479 312 680 486 186 160 454 440 591 615 18
22 32 32 42 28 9 -3 38 -52 65 -109 164 -347 418 -642 724 -842 287 -187 595
-295 1004 -352 150 -21 552 -24 704 -6 129 16 262 41 273 51 4 5 -42 30 -104
57 -205 88 -437 231 -644 397 -123 99 -452 427 -564 562 -270 327 -529 724
-735 1127 -79 154 -94 191 -87 210 5 13 30 75 56 138 156 378 276 823 325
1205 62 478 52 945 -30 1355 -33 163 -56 249 -130 475 -209 639 -269 893 -290
1213 -11 165 -2 372 25 542 8 52 13 95 12 97 -2 1 -36 -36 -76 -82 -191 -217
-425 -347 -656 -364 -115 -8 -197 -3 -192 12 2 7 49 37 106 67 426 232 720
598 835 1041 70 269 74 630 11 931 -52 246 -305 591 -509 693 -86 43 -155 47
-207 12z m-538 -1641 c76 -17 137 -55 192 -116 66 -73 90 -143 85 -250 -6
-143 -68 -245 -190 -311 -60 -32 -68 -34 -168 -34 -90 0 -112 3 -153 24 -70
35 -139 101 -172 168 -28 54 -30 66 -30 168 0 128 14 167 93 248 95 98 214
134 343 103z"/>
<path d="M11556 14203 c-38 -10 -96 -53 -120 -91 -119 -180 48 -399 259 -341
80 22 155 126 155 214 0 83 -57 171 -135 206 -38 18 -115 23 -159 12z"/>
<path d="M14535 15759 c-110 -132 -208 -251 -218 -264 l-17 -23 121 -102 c67
-56 145 -113 173 -126 115 -54 243 -18 349 96 103 111 140 236 103 347 -21 62
-48 92 -176 199 -58 48 -112 93 -120 100 -13 11 -44 -23 -215 -227z m359 -29
c44 -49 56 -77 56 -133 0 -52 -40 -124 -104 -188 -110 -112 -207 -105 -348 23
l-47 43 156 187 157 186 47 -39 c25 -21 63 -57 83 -79z"/>
<path d="M5630 15934 c-25 -20 -45 -41 -44 -48 1 -6 49 -160 108 -342 58 -182
106 -335 106 -339 0 -5 -16 6 -35 25 l-35 34 -27 -24 c-16 -14 -72 -67 -126
-120 l-98 -95 -57 60 c-32 33 -123 129 -203 213 l-145 152 -41 -42 -41 -43
235 -247 236 -247 172 164 c94 91 192 181 218 201 26 20 47 37 47 38 0 1 -13
39 -30 84 -16 46 -30 87 -30 91 0 5 47 48 105 94 l105 86 81 -50 c89 -55 81
-56 153 4 l29 24 -306 176 c-168 98 -312 179 -319 182 -7 3 -33 -11 -58 -31z
m210 -175 l130 -81 -81 -65 c-44 -36 -82 -63 -84 -61 -7 7 -104 288 -100 288
3 0 63 -36 135 -81z"/>
<path d="M15065 15270 c-126 -132 -231 -244 -233 -248 -1 -4 15 -25 37 -46
l39 -38 153 159 c85 87 192 197 238 246 l85 87 -39 40 c-22 22 -42 40 -45 40
-3 0 -108 -108 -235 -240z"/>
<path d="M15379 15177 c-71 -30 -103 -53 -162 -116 -70 -75 -91 -128 -91 -231
-1 -102 21 -154 90 -223 72 -70 124 -92 219 -92 67 0 90 5 139 28 118 55 199
146 231 261 41 141 -35 300 -175 369 -68 33 -178 35 -251 4z m194 -88 c118
-32 173 -170 114 -285 -73 -142 -248 -223 -357 -165 -47 24 -97 91 -105 139
-18 111 91 259 225 306 54 18 73 19 123 5z"/>
<path d="M4838 15155 c-53 -17 -92 -53 -222 -203 l-89 -103 29 -29 c52 -51
478 -420 484 -419 3 0 21 19 40 41 l34 40 -44 42 c-25 22 -69 62 -99 88 l-53
46 77 88 c97 112 109 134 109 211 1 52 -3 67 -29 104 -35 50 -104 95 -155 103
-19 3 -56 -1 -82 -9z m124 -142 c58 -55 45 -107 -52 -220 l-63 -72 -81 71
c-45 39 -82 75 -84 79 -2 4 29 44 68 88 96 108 143 120 212 54z"/>
</g>
</svg>
